<svg width="170" height="174" viewBox="0 0 170 174" fill="none" xmlns="http://www.w3.org/2000/svg">
<circle cx="85" cy="88" r="85" fill="black"/>
<g filter="url(#filter0_d)">
<path d="M38 131V139H54V131H38ZM46 44L51.6837 38.3702L38 24.5554V44H46ZM129 127.795L123.316 133.425L137 147.239V127.795H129ZM137 44C137 39.5817 133.418 36 129 36C124.582 36 121 39.5817 121 44H137ZM54 131V44H38V131H54ZM40.3163 49.6298L123.316 133.425L134.684 122.165L51.6837 38.3702L40.3163 49.6298ZM137 127.795V44H121V127.795H137Z" fill="#FFF7F7"/>
</g>
<defs>
<filter id="filter0_d" x="13" y="0.55542" width="149" height="172.684" filterUnits="userSpaceOnUse" color-interpolation-filters="sRGB">
<feFlood flood-opacity="0" result="BackgroundImageFix"/>
<feColorMatrix in="SourceAlpha" type="matrix" values="0 0 0 0 0 0 0 0 0 0 0 0 0 0 0 0 0 0 127 0" result="hardAlpha"/>
<feOffset dy="1"/>
<feGaussianBlur stdDeviation="12.5"/>
<feComposite in2="hardAlpha" operator="out"/>
<feColorMatrix type="matrix" values="0 0 0 0 0.968627 0 0 0 0 0 0 0 0 0 0.623529 0 0 0 0.45 0"/>
<feBlend mode="normal" in2="BackgroundImageFix" result="effect1_dropShadow"/>
<feBlend mode="normal" in="SourceGraphic" in2="effect1_dropShadow" result="shape"/>
</filter>
</defs>
</svg>
